<?xml version="1.0" encoding="utf-8"?>
<!-- Generator: Adobe Illustrator 20.0.0, SVG Export Plug-In . SVG Version: 6.00 Build 0)  -->
<svg version="1.1" id="Layer_1" xmlns="http://www.w3.org/2000/svg" xmlns:xlink="http://www.w3.org/1999/xlink" x="0px" y="0px"
	 viewBox="0 0 1033.4 768" style="enable-background:new 0 0 1033.4 768;" xml:space="preserve">
<style type="text/css">
	.st0{fill:#274973;}
	.st1{font-family:'AvantGardeLT-Bold';}
	.st2{font-size:107.8971px;}
	.st3{font-family:'AvantGardeLT-Medium';}
	.st4{font-size:41.0583px;}
	.st5{fill:url(#SVGID_1_);}
</style>
<g>
	<g>
		<text transform="matrix(1 0 0 1 241.2682 691.3818)" class="st0 st1 st2">NewWave</text>
	</g>
	<g>
		<text transform="matrix(1 0 0 1 242.6647 734.2998)" class="st0 st3 st4">TELECOM &amp; TECHNOLOGIES </text>
	</g>
	<path class="st0" d="M688.4,329.6c-0.4-4.3-0.9-8.5-1.8-12.6c-4.5-21.5-16.8-38.3-33.9-51.7c-18.8-14.8-40.4-24.4-62.2-33.9
		c-25.9-11.3-52-22.1-77.3-34.6c-28-13.9-52.3-32.8-69.8-59.3c-3.8-5.8-7.1-12-10.3-18.2l-0.1,0.1l4.1-90.4
		c0,0-34.1,105.2-132.6,271.7l1-1.5c0.4,4.2,0.9,8.5,1.8,12.6c4.5,21.5,16.8,38.3,33.9,51.7c18.8,14.8,40.4,24.4,62.2,33.9
		c25.9,11.3,52,22.1,77.3,34.7c28,13.9,52.3,32.9,69.8,59.3c3.8,5.8,7.1,12,10.3,18.2l-0.2,0.3l-4.1,90.4
		c0,0,34.1-105.2,132.6-271.7L688.4,329.6z M609.1,441.4c-5.3-8.2-10-16.9-16.1-24.4c-13.9-17.2-32.5-28.4-52.3-37.8
		c-26.3-12.5-54.1-20.8-81.6-29.8c-24.2-7.9-48.5-15.8-71-28c-18.6-10.1-34.9-22.6-45.4-41.4c-3.8-6.8-6.4-14-8.2-21.5l21.5-30.4
		c0.4,4.2,0.9,8.5,1.8,12.6c4.5,21.5,16.8,38.3,33.9,51.7c18.8,14.8,40.4,24.4,62.1,33.9c25.9,11.3,52,22.1,77.3,34.6
		c28,13.9,52.3,32.9,69.8,59.3c3.8,5.8,7.1,12,10.3,18.2L609.1,441.4z M659.5,370.4c-5.3-8.3-10-16.9-16.1-24.5
		c-14-17.2-32.5-28.4-52.3-37.8c-26.3-12.5-54.1-20.8-81.6-29.8c-24.2-7.9-48.5-15.8-71-28c-18.5-10-34.9-22.6-45.4-41.4
		c-3.8-6.8-6.4-14-8.2-21.5l20-28.1c0.4,4.3,0.9,8.5,1.8,12.6c4.5,21.5,16.8,38.3,33.9,51.7c18.8,14.8,40.4,24.4,62.1,33.9
		c25.9,11.3,52,22.1,77.3,34.6c28,13.9,52.3,32.9,69.8,59.3c3.8,5.8,7.1,12,10.3,18.2L659.5,370.4z"/>
	<linearGradient id="SVGID_1_" gradientUnits="userSpaceOnUse" x1="673.959" y1="481.1262" x2="328.1064" y2="135.2736">
		<stop  offset="0" style="stop-color:#2B588D"/>
		<stop  offset="0.2849" style="stop-color:#9BC3E2"/>
		<stop  offset="0.6129" style="stop-color:#2B588D"/>
		<stop  offset="1" style="stop-color:#FFFFFF"/>
	</linearGradient>
	<path class="st5" d="M692.8,323.3c-0.4-4.3-0.9-8.5-1.8-12.6c-4.5-21.5-16.8-38.3-34-51.8c-18.9-14.8-40.5-24.4-62.2-34
		c-25.9-11.3-52.1-22.2-77.4-34.7c-28-13.9-52.4-32.9-69.9-59.4c-3.8-5.8-7.1-12-10.3-18.2l-0.1,0.1l4.1-90.6
		c0,0-34.2,105.4-132.7,272.1l1-1.5c0.4,4.3,0.9,8.5,1.8,12.7c4.5,21.5,16.8,38.3,34,51.8c18.9,14.8,40.5,24.4,62.2,34
		c25.9,11.3,52.1,22.1,77.4,34.7c28,13.9,52.4,32.9,69.9,59.4c3.8,5.8,7.1,12,10.3,18.2l-0.2,0.3l-4.1,90.6
		c0,0,34.2-105.4,132.8-272.1L692.8,323.3z M613.4,435.3c-5.3-8.3-10-16.9-16.1-24.5c-14-17.2-32.6-28.5-52.4-37.9
		c-26.3-12.5-54.2-20.9-81.8-29.9c-24.3-7.9-48.5-15.8-71.1-28.1c-18.6-10.1-34.9-22.6-45.5-41.5c-3.8-6.8-6.4-14-8.2-21.5
		l21.6-30.4c0.4,4.3,0.9,8.5,1.8,12.7c4.5,21.5,16.8,38.3,34,51.8c18.8,14.8,40.5,24.4,62.2,34c25.9,11.3,52.1,22.1,77.4,34.7
		c28,13.9,52.4,32.9,69.9,59.4c3.8,5.8,7.1,12,10.3,18.2L613.4,435.3z M663.9,364.1c-5.3-8.3-10-16.9-16.1-24.5
		c-14-17.2-32.6-28.4-52.4-37.9c-26.3-12.5-54.2-20.9-81.8-29.9c-24.3-7.9-48.5-15.9-71.1-28.1c-18.6-10.1-34.9-22.6-45.4-41.5
		c-3.8-6.8-6.4-14-8.2-21.5l20-28.2c0.4,4.3,0.9,8.5,1.8,12.6c4.5,21.5,16.8,38.3,34,51.8c18.8,14.8,40.5,24.4,62.2,34
		c25.9,11.3,52.1,22.1,77.4,34.7c28,13.9,52.4,32.9,69.9,59.4c3.8,5.8,7.1,12,10.3,18.2L663.9,364.1z"/>
</g>
</svg>
