<?xml version="1.0" encoding="utf-8"?>
<!-- Generator: Adobe Illustrator 20.0.0, SVG Export Plug-In . SVG Version: 6.00 Build 0)  -->
<svg version="1.1" id="Layer_1" xmlns="http://www.w3.org/2000/svg" xmlns:xlink="http://www.w3.org/1999/xlink" x="0px" y="0px"
	 viewBox="0 0 239.8 343" style="enable-background:new 0 0 239.8 343;" xml:space="preserve">
<style type="text/css">
	.st0{fill:none;stroke:#29373C;stroke-miterlimit:10;}
	.st1{fill:#F05455;}
	.st2{fill:#FFFFFF;}
	.st3{fill:#274973;}
	.st4{fill:url(#SVGID_1_);}
</style>
<g id="Layer_1_1_">
	<path class="st0" d="M239.5,111.6c0,0-83.2,132.1-119.6,132.1C82.6,243.6,0,111.6,0,111.6"/>
	<path class="st0" d="M184.6,111.6c0,0-44.2,132.1-64.8,132.1C99.3,243.7,55,111.6,55,111.6"/>
	<line class="st0" x1="120.1" y1="120.6" x2="119.8" y2="243.6"/>
	<path class="st1" d="M27.7,97.2c15,0,27.5,10.8,30.2,24.8h1.2c2.7-14,15.2-25,30.2-25s27.5,11,30.2,25h1.2c2.7-14,15.2-25,30.2-25
		s27.5,11,30.2,25h1.2c2.7-14,15.2-24.8,30.2-24.8c11.4,0,21.3,6.3,26.6,15.5C234.2,50.9,182.8,2.9,120,2.9S5.7,51,0.9,112.9
		C6.2,103.5,16.2,97.2,27.7,97.2z"/>
	<g>
		<path class="st2" d="M57.7,121.2c0.1,0.3,0.1,0.8,0.2,0.8h1.2c2.7-14,15.2-25,30.2-25s27.5,11,30.2,25h1.2c2.7-14,15.2-25,30.2-25
			s27.5,11,30.2,25h1.2c2.7-14,15.2-24.8,30.2-24.8c11.4,0,21.1,6.3,26.4,15.5C234,50.9,183.3,2.9,120.3,2.9l0,0
			c-1,0-0.3-0.1-0.4-0.1C87.1,2.9,58,55.5,57.7,121.2z"/>
		<path class="st2" d="M120.1,2.9L120.1,2.9L120.1,2.9z"/>
	</g>
	<path class="st1" d="M150.9,97c15,0,27.5,11,30.2,25h1.2c0,0,0.1-0.2,0.1-0.4c-0.1-66-25-119-62.5-119L119.7,122h1
		C123.3,108,135.8,97,150.9,97z"/>
	<g>
		<path d="M213.4,48c-21.8-27.5-55.2-45.1-93.2-45.1V3h0.2c-0.1,0-0.2,0-0.3,0c0,0,0,0,0.1,0h-0.1H120h-0.4h-0.4l0,0
			C84.3,3,52.3,18.4,30.4,43c36.2,4.6,76,7.1,117.9,7.1C170.7,50.1,192.5,49.4,213.4,48z"/>
	</g>
</g>
<g id="clouds">
</g>
<g id="plane">
</g>
<g>
	<path class="st3" d="M170.6,278c-0.1-1-0.2-2.1-0.4-3.1c-1.1-5.3-4.1-9.4-8.3-12.7c-4.6-3.6-9.9-6-15.2-8.3
		c-6.3-2.8-12.7-5.4-18.9-8.5c-6.9-3.4-12.8-8-17.1-14.5c-0.9-1.4-1.7-2.9-2.5-4.5l0,0l1-22.2c0,0-8.4,25.8-32.5,66.6l0.3-0.4
		c0.1,1,0.2,2.1,0.4,3.1c1.1,5.3,4.1,9.4,8.3,12.7c4.6,3.6,9.9,6,15.2,8.3c6.3,2.8,12.7,5.4,18.9,8.5c6.9,3.4,12.8,8,17.1,14.5
		c0.9,1.4,1.7,2.9,2.5,4.5l0,0.1l-1,22.2c0,0,8.4-25.8,32.5-66.6L170.6,278z M151.2,305.4c-1.3-2-2.4-4.1-3.9-6
		c-3.4-4.2-8-7-12.8-9.3c-6.4-3.1-13.3-5.1-20-7.3c-5.9-1.9-11.9-3.9-17.4-6.9c-4.5-2.5-8.5-5.5-11.1-10.1c-0.9-1.7-1.6-3.4-2-5.3
		l5.3-7.4c0.1,1,0.2,2.1,0.4,3.1c1.1,5.3,4.1,9.4,8.3,12.7c4.6,3.6,9.9,6,15.2,8.3c6.3,2.8,12.7,5.4,18.9,8.5
		c6.9,3.4,12.8,8,17.1,14.5c0.9,1.4,1.7,2.9,2.5,4.5L151.2,305.4z M163.6,287.9c-1.3-2-2.4-4.1-3.9-6c-3.4-4.2-8-7-12.8-9.3
		c-6.4-3.1-13.2-5.1-20-7.3c-5.9-1.9-11.9-3.9-17.4-6.9c-4.5-2.5-8.5-5.5-11.1-10.2c-0.9-1.7-1.6-3.4-2-5.3l4.9-6.9
		c0.1,1,0.2,2.1,0.4,3.1c1.1,5.3,4.1,9.4,8.3,12.7c4.6,3.6,9.9,6,15.2,8.3c6.3,2.8,12.7,5.4,18.9,8.5c6.9,3.4,12.8,8.1,17.1,14.5
		c0.9,1.4,1.7,2.9,2.5,4.5L163.6,287.9z"/>
	<linearGradient id="SVGID_1_" gradientUnits="userSpaceOnUse" x1="167.0924" y1="315.0772" x2="82.3543" y2="230.3392">
		<stop  offset="0" style="stop-color:#2B588D"/>
		<stop  offset="0.2849" style="stop-color:#9BC3E2"/>
		<stop  offset="0.6129" style="stop-color:#2B588D"/>
		<stop  offset="1" style="stop-color:#FFFFFF"/>
	</linearGradient>
	<path class="st4" d="M171.7,276.4c-0.1-1-0.2-2.1-0.4-3.1c-1.1-5.3-4.1-9.4-8.3-12.7c-4.6-3.6-9.9-6-15.3-8.3
		c-6.3-2.8-12.8-5.4-19-8.5c-6.9-3.4-12.8-8.1-17.1-14.5c-0.9-1.4-1.7-2.9-2.5-4.5l0,0l1-22.2c0,0-8.4,25.8-32.5,66.7l0.3-0.4
		c0.1,1,0.2,2.1,0.4,3.1c1.1,5.3,4.1,9.4,8.3,12.7c4.6,3.6,9.9,6,15.3,8.3c6.3,2.8,12.8,5.4,19,8.5c6.9,3.4,12.8,8.1,17.1,14.5
		c0.9,1.4,1.7,2.9,2.5,4.5l0,0.1l-1,22.2c0,0,8.4-25.8,32.5-66.7L171.7,276.4z M152.3,303.8c-1.3-2-2.5-4.1-4-6
		c-3.4-4.2-8-7-12.8-9.3c-6.4-3.1-13.3-5.1-20-7.3c-5.9-1.9-11.9-3.9-17.4-6.9c-4.6-2.5-8.6-5.5-11.1-10.2c-0.9-1.7-1.6-3.4-2-5.3
		l5.3-7.5c0.1,1,0.2,2.1,0.4,3.1c1.1,5.3,4.1,9.4,8.3,12.7c4.6,3.6,9.9,6,15.3,8.3c6.3,2.8,12.8,5.4,19,8.5
		c6.9,3.4,12.8,8.1,17.1,14.5c0.9,1.4,1.7,2.9,2.5,4.5L152.3,303.8z M164.6,286.4c-1.3-2-2.5-4.2-4-6c-3.4-4.2-8-7-12.8-9.3
		c-6.4-3.1-13.3-5.1-20-7.3c-5.9-1.9-11.9-3.9-17.4-6.9c-4.6-2.5-8.6-5.5-11.1-10.2c-0.9-1.7-1.6-3.4-2-5.3l4.9-6.9
		c0.1,1,0.2,2.1,0.4,3.1c1.1,5.3,4.1,9.4,8.3,12.7c4.6,3.6,9.9,6,15.3,8.3c6.3,2.8,12.8,5.4,19,8.5c6.9,3.4,12.8,8.1,17.1,14.5
		c0.9,1.4,1.7,2.9,2.5,4.5L164.6,286.4z"/>
</g>
</svg>
