<?xml version="1.0" encoding="utf-8"?>
<!-- Generator: Adobe Illustrator 20.0.0, SVG Export Plug-In . SVG Version: 6.00 Build 0)  -->
<svg version="1.1" id="Layer_1" xmlns="http://www.w3.org/2000/svg" xmlns:xlink="http://www.w3.org/1999/xlink" x="0px" y="0px"
	 viewBox="0 0 749.1 968.8" style="enable-background:new 0 0 749.1 968.8;" xml:space="preserve">
<style type="text/css">
	.st0{fill:#5EC0E7;}
</style>
<g>
	<g>
		<g>
			<path class="st0" d="M381.4,676.1c3,0,11.3-21.8,18.5-48.4L468.1,376c7.2-26.6,10.7-48.4,7.7-48.4s-11.3,21.8-18.5,48.4
				l-68.2,251.7C381.9,654.3,378.4,676.1,381.4,676.1z"/>
		</g>
		<g>
			<path class="st0" d="M397.7,676.1c3.3,0,17.3-19.6,31-43.5L578.8,371c13.7-23.9,22.2-43.5,18.9-43.5s-17.3,19.6-31,43.5
				L416.6,632.6C402.9,656.5,394.4,676.1,397.7,676.1z"/>
		</g>
		<g>
			<path class="st0" d="M364,676.1c3,0-0.5-21.8-7.7-48.4L288.1,376c-7.2-26.6-15.5-48.4-18.5-48.4s0.5,21.8,7.7,48.4l68.2,251.7
				C352.7,654.3,361,676.1,364,676.1z"/>
		</g>
		<g>
			<path class="st0" d="M347.2,676.1c3.3,0-5.2-19.6-18.9-43.5L178.2,371.1c-13.7-23.9-27.7-43.5-31-43.5s5.2,19.6,18.9,43.5
				l150.1,261.6C329.9,656.5,343.9,676.1,347.2,676.1z"/>
		</g>
	</g>
</g>
<path class="st0" d="M619.6,153.9c-14.8,0-29.1,2.5-42.4,7.1C569.6,70.8,494,0,401.9,0c-71.5,0-133,42.6-160.5,103.9
	c-12.5-4.6-26.1-7.1-40.2-7.1c-64.9,0-117.5,52.6-117.5,117.5c0,15.3,3,29.9,8.3,43.3c-4.5-0.8-9-1.3-13.7-1.3
	C35,256.3,0,291.4,0,334.6s35,78.2,78.2,78.2h541.4c71.5,0,129.5-58,129.5-129.5C749.1,211.8,691.1,153.9,619.6,153.9z"/>
<path class="st0" d="M506.2,764.6c-0.3-3.1-0.7-6.3-1.3-9.3c-3.3-15.8-12.4-28.2-25-38.1c-13.9-10.9-29.8-18-45.8-25
	c-19.1-8.3-38.3-16.3-56.9-25.5c-20.6-10.2-38.6-24.2-51.4-43.7c-2.8-4.3-5.2-8.8-7.6-13.4l-0.1,0.1l3-66.6
	c0,0-25.1,77.6-97.7,200.2l0.8-1.1c0.3,3.1,0.7,6.2,1.3,9.3c3.3,15.8,12.4,28.2,25,38.1c13.9,10.9,29.8,18,45.8,25
	c19.1,8.3,38.3,16.3,56.9,25.5c20.6,10.2,38.6,24.2,51.4,43.7c2.8,4.3,5.2,8.8,7.6,13.4l-0.1,0.2l-3,66.6c0,0,25.1-77.6,97.7-200.2
	L506.2,764.6z M447.8,847c-3.9-6.1-7.4-12.5-11.9-18c-10.3-12.7-24-20.9-38.5-27.9c-19.4-9.2-39.9-15.4-60.2-22
	c-17.9-5.8-35.7-11.7-52.3-20.7c-13.7-7.4-25.7-16.6-33.5-30.5c-2.8-5-4.7-10.3-6-15.9l15.9-22.4c0.3,3.1,0.7,6.2,1.3,9.3
	c3.3,15.8,12.4,28.2,25,38.1c13.9,10.9,29.8,18,45.8,25c19.1,8.3,38.3,16.3,56.9,25.5c20.6,10.2,38.6,24.2,51.4,43.7
	c2.8,4.3,5.2,8.8,7.6,13.4L447.8,847z M484.9,794.7c-3.9-6.1-7.4-12.5-11.9-18c-10.3-12.7-24-20.9-38.5-27.9
	c-19.4-9.2-39.9-15.4-60.2-22c-17.9-5.8-35.7-11.7-52.3-20.7c-13.7-7.4-25.7-16.6-33.4-30.5c-2.8-5-4.7-10.3-6-15.9l14.7-20.7
	c0.3,3.1,0.7,6.3,1.3,9.3c3.3,15.8,12.4,28.2,25,38.1c13.9,10.9,29.8,18,45.8,25c19.1,8.3,38.3,16.3,56.9,25.5
	c20.6,10.2,38.6,24.2,51.4,43.7c2.8,4.3,5.2,8.8,7.6,13.4L484.9,794.7z"/>
</svg>
