<svg id="Layer_1" data-name="Layer 1" xmlns="http://www.w3.org/2000/svg" viewBox="0 0 316.08 316.08"><defs><style>.cls-1{fill:#284973;}.cls-2{fill:#222626;}.cls-3{fill:#fff;}</style></defs><title>Artboard 83</title><circle class="cls-1" cx="158.04" cy="158.03" r="148.28"/><path class="cls-2" d="M159.63,57.78c-1.13-2.45-2.44-2.17-3.52.85C137.82,109.54,77.43,121.41,74,175.39c-.85,13.49,4.22,25.32,12.8,33.3.54.57,44.67,46.59,44.09,47.15-2.16,2.09-2.13,3.58.09,4-.15.84,45,45.09,45.29,45.37A148.41,148.41,0,0,0,301.1,197.11C300.6,196.06,160.19,57.73,159.63,57.78Z"/><path class="cls-3" d="M201.85,219.18c-13.46,0-18.2-3.64-32-11-3.12-1.67-5.55-.1-5.13,3.42,2.91,24.66,13.74,38.17,20.24,44.22,2.59,2.41,2.16,4-1.38,4l-22.23,0h-6.07l-22.75,0c-3.54,0-4-1.62-1.49-4.09,6.46-6.25,17.34-20.06,20.48-44.24.45-3.51-1.94-5.08-5.06-3.4-13.9,7.47-18.63,11.17-32.13,11.19-23.4,0-41.72-19.11-40.2-43.83C77.46,121.53,137.76,109.6,156,58.74c1.2-3.33,2.67-3.34,3.87,0,18.32,50.82,78.65,62.61,82.11,116.52C243.53,200,225.24,219.16,201.85,219.18Z"/></svg>