<?xml version="1.0" encoding="utf-8"?>
<!-- Generator: Adobe Illustrator 20.0.0, SVG Export Plug-In . SVG Version: 6.00 Build 0)  -->
<svg version="1.1" id="Layer_1" xmlns="http://www.w3.org/2000/svg" xmlns:xlink="http://www.w3.org/1999/xlink" x="0px" y="0px"
	 viewBox="0 0 59.6 20" style="enable-background:new 0 0 59.6 20;" xml:space="preserve">
<style type="text/css">
	.st0{fill:#FFFFFF;}
</style>
<path class="st0" d="M37.2-12h-2.5c-0.1,0-0.1,0-0.2,0v-1.7c0.1,0,0.1,0,0.2,0h0.5c0.8,0,1.5-0.6,1.5-1.5v-0.5
	c0-0.8,0.2-1.5,0.5-1.5s0.5,0.5,0.7,1.4l0.4,2.5C38.4-12.7,37.9-12,37.2-12z M32.7-15.5h-3.8h-0.2h-3.9c-0.1,0-0.1,0-0.2,0v-0.4
	c0-0.8-0.2-1.5-0.5-1.5s-0.5,0.6-0.6,1.4L23-13.5c-0.2,0.8,0.5,1.4,1.2,1.4h2.5c0.3,0,0.5,0,0.7-0.1c-0.1,0.5-0.5,0.7-0.8,0.7h-3.4
	c-0.5,0-0.9-0.5-0.8-1l0.4-2.1c0.1-0.5-0.4-1-0.8-1H5.2c-0.4,0-0.7,0.2-0.8,0.5l-3,4.7c-0.1,0.1-0.1,0.2,0,0.3l0.5,0.7
	c0.1,0.1,0.2,0.1,0.3,0L4.4-11v10.2C4.4-0.3,4.9,0,5.2,0H10c0.5,0,0.8-0.5,0.8-0.8v-3.5c0-0.5,0.5-0.8,0.8-0.8h11.8
	c0.5,0,0.8,0.5,0.8,0.8v3.5C24.2-0.3,24.7,0,25,0h4.8c0.5,0,0.8-0.5,0.8-0.8v-3.8h-2.5c-0.8,0-1.5-0.5-1.5-1.5v-2.5
	c0-0.5,0.3-0.8,0.5-1.1v2.9c0,0.8,0.5,1.5,1.5,1.5h3.8c0.8,0,1.5-0.5,1.5-1.5v-7.6C34-14.8,33.4-15.5,32.7-15.5z"/>
<path class="st0" d="M49.7,8.8c-0.7-0.4-1.5-0.4-2.3-0.2c-0.1-0.8-0.6-1.5-1.2-2L46,6.4l-0.2,0.2c-0.4,0.5-0.5,1.3-0.5,1.9
	c0,0.4,0.2,0.9,0.5,1.3c-0.2,0.1-0.4,0.2-0.7,0.3c-0.4,0.1-0.9,0.2-1.4,0.2h-1v-2h-2V4.4h-2.4v2h-3.9v2h-2v2h-1.7v0.3
	c-0.1,1,0,2,0.5,2.9l0.2,0.4l0,0c1.2,2.1,3.3,2.9,5.7,2.9c4.5,0,8.2-2,9.9-6.2c1.1,0.1,2.3-0.3,2.9-1.4L50,9L49.7,8.8L49.7,8.8z
	 M34.8,6.7h1.7v1.7h-1.7V6.7L34.8,6.7z M36.9,13.6c0,0.3-0.2,0.5-0.5,0.5s-0.5-0.2-0.5-0.5s0.2-0.5,0.5-0.5S36.9,13.3,36.9,13.6z
	 M34.8,8.6h1.7v1.7h-1.7V8.6L34.8,8.6z M32.9,8.6h1.7v1.7h-1.7V8.6L32.9,8.6z M37.1,16.5c-2.4,0-3.7-0.8-4.8-1.9c0.3,0,0.6,0,0.9,0
	c0.2,0,0.5,0,0.7,0c0.6,0,1.1-0.1,1.6-0.2c0.4,0.8,1,1.6,2.2,2.1C37.5,16.5,37.3,16.5,37.1,16.5L37.1,16.5z M38.5,10.3h-1.7V8.6h1.7
	V10.3L38.5,10.3z M38.5,8.4h-1.7V6.7h1.7V8.4L38.5,8.4z M40.4,10.3h-1.7V8.6h1.7V10.3L40.4,10.3z M40.4,8.4h-1.7V6.7h1.7V8.4
	L40.4,8.4z M40.4,6.4h-1.7V4.7h1.7V6.4z M42.4,10.3h-1.7V8.6h1.7V10.3L42.4,10.3z M36.4,13.2h0.1l-0.1,0.1c0,0.1,0.1,0.1,0.1,0.1
	s0.1,0,0.1-0.1v0.1c0,0.2-0.1,0.3-0.3,0.3c-0.2,0-0.3-0.1-0.3-0.3C36.1,13.4,36.2,13.2,36.4,13.2L36.4,13.2z"/>
<path class="st0" d="M22.3,10.5c0-0.1,0-0.3-0.1-0.4c-0.1-0.7-0.6-1.3-1.1-1.7c-0.6-0.5-1.3-0.8-2-1.1c-0.9-0.4-1.7-0.7-2.5-1.1
	c-0.9-0.5-1.7-1.1-2.3-1.9C14.1,4,14,3.8,13.9,3.6l0,0l0.1-3c0,0-1.1,3.5-4.4,8.9l0,0c0,0.1,0,0.3,0.1,0.4c0.1,0.7,0.6,1.3,1.1,1.7
	c0.6,0.5,1.3,0.8,2,1.1c0.9,0.4,1.7,0.7,2.5,1.1c0.9,0.5,1.7,1.1,2.3,1.9c0.1,0.2,0.2,0.4,0.3,0.6l0,0l-0.1,3
	C17.9,19.4,19,15.9,22.3,10.5L22.3,10.5z M19.6,14.2c-0.2-0.3-0.3-0.6-0.5-0.8c-0.5-0.6-1.1-0.9-1.7-1.2c-0.9-0.4-1.8-0.7-2.7-1
	c-0.8-0.3-1.6-0.5-2.3-0.9c-0.6-0.3-1.1-0.7-1.5-1.4c-0.1-0.2-0.2-0.5-0.3-0.7l0.7-1c0,0.1,0,0.3,0.1,0.4c0.1,0.7,0.6,1.3,1.1,1.7
	c0.6,0.5,1.3,0.8,2,1.1c0.9,0.4,1.7,0.7,2.5,1.1c0.9,0.5,1.7,1.1,2.3,1.9C19.5,13.7,19.6,13.9,19.6,14.2L19.6,14.2z M21.3,11.8
	c-0.2-0.3-0.3-0.6-0.5-0.8c-0.5-0.6-1.1-0.9-1.7-1.2c-0.9-0.4-1.8-0.7-2.7-1c-0.8-0.3-1.6-0.5-2.3-0.9c-0.6-0.3-1.1-0.7-1.5-1.4
	c-0.1-0.2-0.2-0.5-0.3-0.7l0.7-0.9c0,0.1,0,0.3,0.1,0.4C13.1,6,13.5,6.6,14.1,7c0.6,0.5,1.3,0.8,2,1.1c0.9,0.4,1.7,0.7,2.5,1.1
	c0.9,0.5,1.7,1.1,2.3,1.9C21.1,11.4,21.2,11.6,21.3,11.8L21.3,11.8z"/>
</svg>
