<?xml version="1.0" encoding="utf-8"?>
<!-- Generator: Adobe Illustrator 20.0.0, SVG Export Plug-In . SVG Version: 6.00 Build 0)  -->
<svg version="1.1" id="Layer_1" xmlns="http://www.w3.org/2000/svg" xmlns:xlink="http://www.w3.org/1999/xlink" x="0px" y="0px"
	 viewBox="0 0 59.6 20" style="enable-background:new 0 0 59.6 20;" xml:space="preserve">
<style type="text/css">
	.st0{fill:#FFFFFF;}
</style>
<g id="layer1">
	<g id="g3052">
		<path id="path3059" class="st0" d="M40.2,0.8c-0.3,0-0.5,0.3-0.5,0.6l0,0c0,0.1,0,0.1,0,0.2c0,0.2,0.1,0.4,0.1,0.5
			c0.1,0.4,0.1,0.7,0.1,1c0,0.1-0.1,0.2-0.2,0.3v0.2c-0.3,0.1-0.7,0.1-1,0.2c-1.4,0.3-2.6,1-3.5,2C35.1,5.7,35,5.7,35,5.6
			c-0.1,0-0.2,0.1-0.3-0.1c-0.3-0.2-0.5-0.4-0.7-0.7c-0.1-0.1-0.2-0.3-0.4-0.4c-0.1-0.1-0.1-0.1-0.1-0.1c-0.1-0.1-0.3-0.2-0.4-0.2
			c-0.2,0-0.3,0.1-0.4,0.2c-0.2,0.2-0.1,0.6,0.2,0.8l0,0C33,5.2,33,5.2,33,5.2c0.2,0.1,0.3,0.2,0.5,0.3C33.7,5.8,34,6,34.2,6.2
			c0.1,0.1,0.1,0.3,0.1,0.3l0.2,0.2c-0.9,1.4-1.3,3.1-1.1,4.9l-0.2,0.1C33.1,11.8,33,11.9,33,12c-0.3,0.1-0.6,0.1-1,0.2
			c-0.2,0-0.3,0-0.5,0.1c-0.1,0-0.1,0-0.2,0.1l0,0l0,0c-0.3,0.1-0.5,0.4-0.5,0.7c0.1,0.3,0.4,0.5,0.7,0.4l0,0l0,0
			c0.1,0,0.1,0,0.2-0.1c0.2-0.1,0.3-0.1,0.5-0.2c0.4-0.1,0.7-0.3,0.9-0.3c0.1,0,0.3,0.1,0.3,0.1l0.3-0.1c0.5,1.7,1.7,3.1,3.1,3.9
			l-0.1,0.3c0-0.1,0,0,0,0.1c-0.1,0.3-0.3,0.6-0.5,0.9c-0.1,0.2-0.2,0.3-0.3,0.4c0,0.1-0.1,0.1-0.1,0.2c-0.2,0.3-0.1,0.6,0.2,0.8
			c0.3,0.1,0.6,0,0.7-0.3l0,0l0,0c0-0.1,0.1-0.1,0.1-0.2c0.1-0.2,0.1-0.3,0.2-0.5c0.2-0.4,0.2-0.7,0.4-1c0.1-0.1,0.2-0.1,0.2-0.1
			l0.1-0.2c1.2,0.5,2.6,0.6,4,0.3c0.3-0.1,0.6-0.2,0.9-0.3c0.1,0.1,0.1,0.2,0.1,0.2c0.1,0.1,0.2,0.1,0.3,0.2
			c0.2,0.3,0.3,0.6,0.4,0.9c0.1,0.2,0.1,0.3,0.2,0.5c0,0.1,0.1,0.1,0.1,0.2c0.2,0.3,0.5,0.4,0.7,0.3c0.3-0.1,0.4-0.5,0.2-0.8
			c0-0.1-0.1-0.1-0.1-0.2c-0.1-0.2-0.2-0.3-0.3-0.4c-0.2-0.3-0.4-0.6-0.5-0.9c0-0.2,0-0.2,0.1-0.3l-0.1-0.2c1.5-0.9,2.6-2.3,3.1-3.9
			c0.1,0,0.2,0.1,0.2,0.1c0.1-0.1,0.2-0.1,0.3-0.1c0.3,0.1,0.6,0.2,0.9,0.3c0.2,0.1,0.3,0.2,0.5,0.2c0.1,0,0.1,0,0.2,0.1l0,0l0,0
			c0.3,0.1,0.6-0.1,0.7-0.4c0.1-0.3-0.2-0.6-0.5-0.7c-0.1,0-0.1-0.1-0.2-0.1c-0.2-0.1-0.4-0.1-0.5-0.1c-0.4-0.1-0.7-0.1-1-0.2
			c-0.1-0.1-0.2-0.2-0.2-0.3v-0.1c0.1-0.8,0.1-1.7-0.1-2.5c-0.2-0.9-0.6-1.7-1-2.3c0.1-0.1,0.2-0.2,0.2-0.2c0-0.1,0-0.2,0.1-0.3
			c0.2-0.2,0.5-0.4,0.8-0.6c0.2-0.1,0.3-0.2,0.5-0.3c0.1,0,0.1-0.1,0.1-0.1C48.1,5,48.1,4.6,48,4.4c-0.2-0.2-0.6-0.3-0.8-0.1
			c-0.1,0.1-0.1,0.1-0.1,0.1c-0.2,0.1-0.3,0.3-0.4,0.4c-0.3,0.3-0.5,0.5-0.7,0.7c-0.1,0.1-0.3,0.1-0.3,0.1l-0.2,0.2
			c-1.2-1.2-2.8-2-4.5-2.2c0-0.1,0-0.2,0-0.3c-0.1-0.1-0.2-0.1-0.2-0.3c0-0.3,0-0.6,0.1-1c0-0.2,0.1-0.3,0.1-0.5c0-0.1,0-0.1,0-0.2
			C40.8,1.2,40.5,0.8,40.2,0.8L40.2,0.8z M39.6,5l-0.2,2.9l0,0c0,0.3-0.2,0.5-0.5,0.5c-0.1,0-0.2-0.1-0.3-0.1l0,0l-2.3-1.7
			C37,5.9,37.9,5.4,39,5.1C39.2,5.1,39.4,5.1,39.6,5z M40.9,5c1.2,0.2,2.4,0.7,3.2,1.6l-2.3,1.7l0,0c-0.2,0.2-0.5,0.1-0.7-0.1
			C41,8.1,41,8,41,7.9l0,0L40.9,5z M35.5,7.7l2.1,1.9l0,0c0.2,0.2,0.2,0.5,0.1,0.7c-0.1,0.1-0.2,0.2-0.3,0.2l0,0l-2.7,0.7
			C34.5,9.9,34.8,8.7,35.5,7.7z M45,7.7c0.3,0.5,0.6,1.1,0.7,1.7c0.2,0.6,0.2,1.2,0.1,1.8L43,10.4l0,0c-0.3-0.1-0.4-0.3-0.4-0.6
			c0-0.1,0.1-0.2,0.2-0.3l0,0L45,7.7L45,7.7z M39.8,9.7h0.9l0.5,0.7L41,11.2l-0.8,0.4l-0.8-0.4l-0.2-0.8L39.8,9.7z M42.6,12
			C42.7,12,42.7,12,42.6,12L42.6,12l2.9,0.5c-0.4,1.1-1.2,2.2-2.2,2.8l-1.1-2.6l0,0c-0.1-0.2,0-0.5,0.2-0.6
			C42.5,12.1,42.5,12,42.6,12L42.6,12z M37.8,12.1c0.2,0,0.4,0.2,0.5,0.4c0,0.1,0,0.2-0.1,0.3l0,0l-1.1,2.6c-1-0.6-1.8-1.6-2.2-2.8
			L37.8,12.1L37.8,12.1C37.8,12.1,37.8,12.1,37.8,12.1L37.8,12.1z M40.2,13.2c0.1,0,0.2,0,0.2,0.1c0.1,0.1,0.2,0.1,0.2,0.2l0,0
			l1.3,2.5c-0.2,0.1-0.4,0.1-0.6,0.2c-1,0.3-2.1,0.2-3.1-0.2l1.3-2.5l0,0C39.9,13.3,40.1,13.2,40.2,13.2z"/>
	</g>
</g>
<path class="st0" d="M22.6,10.4c0-0.1,0-0.3-0.1-0.4c-0.1-0.7-0.6-1.3-1.1-1.7c-0.6-0.5-1.3-0.8-2-1.1c-0.9-0.4-1.7-0.7-2.5-1.1
	c-0.9-0.5-1.7-1.1-2.3-1.9c-0.1-0.2-0.2-0.4-0.3-0.6l0,0l0.1-3c0,0-1.1,3.5-4.4,8.9l0,0c0,0.1,0,0.3,0.1,0.4
	c0.1,0.7,0.6,1.3,1.1,1.7c0.6,0.5,1.3,0.8,2,1.1c0.9,0.4,1.7,0.7,2.5,1.1c0.9,0.5,1.7,1.1,2.3,1.9c0.1,0.2,0.2,0.4,0.3,0.6l0,0
	l-0.1,3C18.3,19.3,19.4,15.9,22.6,10.4L22.6,10.4z M20,14.1c-0.2-0.3-0.3-0.6-0.5-0.8c-0.5-0.6-1.1-0.9-1.7-1.2
	c-0.9-0.4-1.8-0.7-2.7-1c-0.8-0.3-1.6-0.5-2.3-0.9c-0.6-0.3-1.1-0.7-1.5-1.4C11.1,8.6,11,8.4,11,8.1l0.7-1c0,0.1,0,0.3,0.1,0.4
	c0.1,0.7,0.6,1.3,1.1,1.7c0.6,0.5,1.3,0.8,2,1.1c0.9,0.4,1.7,0.7,2.5,1.1c0.9,0.5,1.7,1.1,2.3,1.9C19.9,13.6,20,13.8,20,14.1
	L20,14.1z M21.7,11.8c-0.2-0.3-0.3-0.6-0.5-0.8c-0.5-0.6-1.1-0.9-1.7-1.2c-0.9-0.4-1.8-0.7-2.7-1c-0.8-0.3-1.6-0.5-2.3-0.9
	c-0.6-0.3-1.1-0.7-1.5-1.4c-0.1-0.2-0.2-0.5-0.3-0.7l0.7-0.9c0,0.1,0,0.3,0.1,0.4C13.5,6,13.9,6.5,14.5,7c0.6,0.5,1.3,0.8,2,1.1
	c0.9,0.4,1.7,0.7,2.5,1.1c0.9,0.5,1.7,1.1,2.3,1.9C21.5,11.4,21.6,11.6,21.7,11.8L21.7,11.8z"/>
</svg>
