<?xml version="1.0" encoding="utf-8"?>
<!-- Generator: Adobe Illustrator 20.0.0, SVG Export Plug-In . SVG Version: 6.00 Build 0)  -->
<svg version="1.1" id="Layer_1" xmlns="http://www.w3.org/2000/svg" xmlns:xlink="http://www.w3.org/1999/xlink" x="0px" y="0px"
	 viewBox="0 0 59.6 20" style="enable-background:new 0 0 59.6 20;" xml:space="preserve">
<style type="text/css">
	.st0{fill:#FFFFFF;}
	.st1{opacity:0.1;fill:#FFFFFF;enable-background:new    ;}
</style>
<path class="st0" d="M41.1-30.5h-2.7c-0.1,0-0.1,0-0.2,0v-1.9c0.1,0,0.1,0,0.2,0H39c0.9,0,1.6-0.7,1.6-1.6v-0.6
	c0-0.9,0.2-1.6,0.5-1.6s0.6,0.6,0.8,1.5l0.4,2.7C42.4-31.2,41.9-30.4,41.1-30.5z M36.2-34.3H32h-0.2h-4.3c-0.1,0-0.1,0-0.2,0v-0.4
	c0-0.9-0.2-1.6-0.5-1.6s-0.5,0.7-0.7,1.5l-0.5,2.7c-0.2,0.9,0.5,1.5,1.3,1.5h2.7c0.3,0,0.5,0,0.8-0.1c-0.1,0.5-0.5,0.8-0.9,0.8h-3.7
	c-0.5,0-1-0.5-0.9-1.1l0.4-2.3c0.1-0.5-0.4-1.1-0.9-1.1H6c-0.4,0-0.8,0.2-0.9,0.6l-3.3,5.1c-0.1,0.1-0.1,0.2,0,0.3l0.6,0.8
	c0.1,0.1,0.2,0.1,0.3,0l2.4-1.8v11.1c0,0.5,0.5,0.9,0.9,0.9h5.2c0.5,0,0.9-0.5,0.9-0.9v-3.8c0-0.5,0.5-0.9,0.9-0.9h12.9
	c0.5,0,0.9,0.5,0.9,0.9v3.8c0,0.5,0.5,0.9,0.9,0.9h5.2c0.5,0,0.9-0.5,0.9-0.9v-4.1h-2.7c-0.9,0-1.6-0.6-1.6-1.6v-2.7
	c0-0.5,0.3-0.9,0.6-1.2v3.2c0,0.9,0.6,1.6,1.6,1.6h4.2c0.9,0,1.6-0.6,1.6-1.6V-33C37.6-33.5,37-34.3,36.2-34.3z"/>
<g>
	<path class="st1" d="M46.8,11.8V8.1l-3.2,1.8L46.8,11.8"/>
	<path class="st0" d="M46.6,7.8L43.4,6v3.7L46.6,7.8"/>
	<path class="st0" d="M43,9.6V5.9l-3.2,1.8L43,9.6"/>
	<path class="st0" d="M42.8,5.6l-3.2-1.8v3.7L42.8,5.6"/>
	<path class="st1" d="M46.6,12.2l-3.2-1.8v3.7L46.6,12.2"/>
	<path class="st1" d="M43,14v-3.7l-3.2,1.8L43,14"/>
	<path class="st0" d="M50.4,10l-3.2-1.8v3.7L50.4,10"/>
	<path class="st0" d="M39.2,7.4V3.7L36,5.5L39.2,7.4"/>
	<path class="st1" d="M42.8,14.4l-3.2-1.8v3.7L42.8,14.4"/>
	<path class="st0" d="M39.2,16.2v-3.7L36,14.3L39.2,16.2"/>
	<path class="st1" d="M42.8,10l-3.2-1.8v3.7L42.8,10"/>
	<path class="st0" d="M46.8,7.4V3.7l-3.2,1.8L46.8,7.4"/>
	<path class="st1" d="M43.4,1.6v3.7l3.2-1.8L43.4,1.6"/>
	<path class="st1" d="M39.8,3.4L43,5.2V1.5L39.8,3.4"/>
	<path class="st1" d="M46.6,16.6l-3.2-1.8v3.7L46.6,16.6"/>
	<path class="st1" d="M43,18.4v-3.7l-3.2,1.8L43,18.4"/>
	<path class="st0" d="M50.6,14v-3.7l-3.2,1.8L50.6,14"/>
	<path class="st0" d="M39.2,11.8V8.1L36,9.9L39.2,11.8"/>
	<path class="st0" d="M39,12.2l-3.2-1.8v3.7L39,12.2"/>
	<path class="st0" d="M50.6,9.6V5.9l-3.2,1.8L50.6,9.6"/>
	<path class="st0" d="M50.4,5.6l-3.2-1.8v3.7L50.4,5.6"/>
	<path class="st0" d="M50.4,14.4l-3.2-1.8v3.7L50.4,14.4"/>
	<path class="st1" d="M46.8,16.2v-3.7l-3.2,1.8L46.8,16.2"/>
	<path class="st0" d="M39,7.8L35.8,6v3.7L39,7.8"/>
</g>
<path class="st0" d="M23.9,10.4c0-0.1,0-0.3-0.1-0.4c-0.1-0.7-0.6-1.3-1.1-1.7c-0.6-0.5-1.3-0.8-2-1.1c-0.9-0.4-1.7-0.7-2.5-1.1
	c-0.9-0.5-1.7-1.1-2.3-1.9c-0.1-0.2-0.2-0.4-0.3-0.6l0,0l0.1-3c0,0-1.1,3.5-4.4,8.9l0,0c0,0.1,0,0.3,0.1,0.4
	c0.1,0.7,0.6,1.3,1.1,1.7c0.6,0.5,1.3,0.8,2,1.1c0.9,0.4,1.7,0.7,2.5,1.1c0.9,0.5,1.7,1.1,2.3,1.9c0.1,0.2,0.2,0.4,0.3,0.6l0,0
	l-0.1,3C19.6,19.3,20.7,15.9,23.9,10.4L23.9,10.4z M21.3,14.1c-0.2-0.3-0.3-0.6-0.5-0.8c-0.5-0.6-1.1-0.9-1.7-1.2
	c-0.9-0.4-1.8-0.7-2.7-1c-0.8-0.3-1.6-0.5-2.3-0.9c-0.6-0.3-1.1-0.7-1.5-1.4c-0.1-0.2-0.2-0.5-0.3-0.7l0.7-1c0,0.1,0,0.3,0.1,0.4
	c0.1,0.7,0.6,1.3,1.1,1.7c0.6,0.5,1.3,0.8,2,1.1c0.9,0.4,1.7,0.7,2.5,1.1c0.9,0.5,1.7,1.1,2.3,1.9C21.1,13.6,21.2,13.8,21.3,14.1
	L21.3,14.1z M22.9,11.8c-0.2-0.3-0.3-0.6-0.5-0.8c-0.5-0.6-1.1-0.9-1.7-1.2c-0.9-0.4-1.8-0.7-2.7-1c-0.8-0.3-1.6-0.5-2.3-0.9
	c-0.6-0.3-1.1-0.7-1.5-1.4C14.1,6.3,14,6,13.9,5.8l0.7-0.9c0,0.1,0,0.3,0.1,0.4C14.8,6,15.2,6.5,15.7,7c0.6,0.5,1.3,0.8,2,1.1
	c0.9,0.4,1.7,0.7,2.5,1.1c0.9,0.5,1.7,1.1,2.3,1.9C22.7,11.4,22.8,11.6,22.9,11.8L22.9,11.8z"/>
</svg>
