<svg id="Layer_1" data-name="Layer 1" xmlns="http://www.w3.org/2000/svg" xmlns:xlink="http://www.w3.org/1999/xlink" viewBox="0 0 535 173"><defs><style>.cls-1{font-size:79.58px;font-family:AvantGardeLT-Bold, AvantGarde LT Medium;font-weight:700;}.cls-1,.cls-5,.cls-7{fill:#274973;}.cls-2{letter-spacing:-0.02em;}.cls-3{letter-spacing:0em;}.cls-4{letter-spacing:-0.05em;}.cls-5{font-size:30.28px;font-family:AvantGardeLT-Medium, AvantGarde LT Medium;}.cls-6{letter-spacing:-0.02em;}.cls-8{fill:url(#linear-gradient);}</style><linearGradient id="linear-gradient" x1="104.66" y1="128.9" x2="18.96" y2="43.2" gradientUnits="userSpaceOnUse"><stop offset="0" stop-color="#2c588d"/><stop offset="0.28" stop-color="#9cc3e2"/><stop offset="0.61" stop-color="#2c588d"/><stop offset="1" stop-color="#fff"/></linearGradient></defs><title>Artboard 3</title><text class="cls-1" transform="translate(118.95 101.07)">N<tspan class="cls-2" x="60.4" y="0">e</tspan><tspan class="cls-3" x="110.21" y="0">w</tspan><tspan class="cls-4" x="177.85" y="0">W</tspan><tspan class="cls-3" x="251.94" y="0">a</tspan><tspan class="cls-2" x="307.96" y="0">v</tspan><tspan x="353.48" y="0">e</tspan></text><text class="cls-5" transform="translate(119.98 132.72)">TELECOM &amp;<tspan class="cls-6" x="163.94" y="0"> </tspan><tspan x="171.57" y="0">TECHNOLOGIES </tspan></text><path class="cls-7" d="M108.9,88.06a22.06,22.06,0,0,0-8.48-12.94c-4.71-3.7-10.11-6.1-15.54-8.48-6.47-2.83-13-5.53-19.32-8.66-7-3.47-13.09-8.21-17.45-14.83a46.74,46.74,0,0,1-2.57-4.55l0,0,1-22.61S38,42.34,13.39,84l.26-.36a28.36,28.36,0,0,0,.45,3.16,22.07,22.07,0,0,0,8.49,12.94c4.71,3.7,10.11,6.1,15.54,8.48,6.46,2.83,13,5.53,19.32,8.66,7,3.47,13.09,8.21,17.45,14.83a47.08,47.08,0,0,1,2.57,4.55l0,.07-1,22.61s8.53-26.32,33.15-67.93l-.19.27A27.45,27.45,0,0,0,108.9,88.06ZM89.52,119.18a63.17,63.17,0,0,0-4-6.11c-3.49-4.3-8.13-7.1-13.07-9.45C65.85,100.49,58.9,98.4,52,96.15c-6.06-2-12.12-4-17.75-7-4.64-2.51-8.71-5.65-11.35-10.36a20.11,20.11,0,0,1-2-5.38l5.38-7.59A28.46,28.46,0,0,0,26.7,69,22.06,22.06,0,0,0,35.19,81.9c4.71,3.7,10.11,6.1,15.54,8.48,6.47,2.83,13,5.53,19.32,8.66A43.42,43.42,0,0,1,87.5,113.87a47.34,47.34,0,0,1,2.57,4.55Zm12.6-17.77a64.47,64.47,0,0,0-4-6.12C94.6,91,90,88.19,85,85.84c-6.57-3.12-13.52-5.21-20.41-7.46-6.06-2-12.12-4-17.75-7C42.22,68.86,38.14,65.73,35.51,61a20.25,20.25,0,0,1-2-5.38l5-7a27.82,27.82,0,0,0,.45,3.16,22.06,22.06,0,0,0,8.49,12.94c4.71,3.7,10.11,6.1,15.54,8.48,6.47,2.83,13,5.53,19.32,8.66A43.43,43.43,0,0,1,99.7,96.66a47.32,47.32,0,0,1,2.56,4.55Z"/><path class="cls-7" d="M108.24,91.36a27.71,27.71,0,0,0-.44-3.13,21.88,21.88,0,0,0-8.41-12.82c-4.66-3.66-10-6-15.4-8.4-6.41-2.8-12.89-5.48-19.15-8.59a43,43,0,0,1-17.3-14.69A46.64,46.64,0,0,1,45,39.22l0,0,1-22.41S37.54,42.91,13.15,84.16l.26-.36a28.44,28.44,0,0,0,.44,3.13,21.87,21.87,0,0,0,8.41,12.82c4.66,3.66,10,6,15.4,8.4,6.41,2.8,12.88,5.48,19.14,8.59A43,43,0,0,1,74.1,131.43a46.25,46.25,0,0,1,2.54,4.51l0,.06-1,22.41S84,132.33,108.43,91.09ZM88.59,119.07a62.94,62.94,0,0,0-4-6.06c-3.46-4.26-8.06-7-13-9.37-6.51-3.09-13.4-5.17-20.23-7.4-6-2-12-3.92-17.59-6.94-4.6-2.49-8.64-5.59-11.25-10.27a20,20,0,0,1-2-5.33l5.34-7.53a28.49,28.49,0,0,0,.44,3.13,21.86,21.86,0,0,0,8.41,12.81c4.66,3.67,10,6,15.4,8.41C56.55,93.34,63,96,69.29,99.12a43,43,0,0,1,17.3,14.69,47.09,47.09,0,0,1,2.54,4.51Zm12.49-17.61a64.31,64.31,0,0,0-4-6.06c-3.46-4.26-8.06-7-13-9.37-6.51-3.09-13.4-5.17-20.23-7.4-6-2-12-3.92-17.59-6.95-4.6-2.49-8.64-5.59-11.25-10.27a20.1,20.1,0,0,1-2-5.33l4.94-7a28,28,0,0,0,.44,3.13,21.86,21.86,0,0,0,8.41,12.82c4.66,3.66,10,6,15.4,8.4,6.41,2.8,12.88,5.48,19.15,8.58A43,43,0,0,1,98.68,96.75a46.76,46.76,0,0,1,2.54,4.51Z"/><path class="cls-8" d="M109.33,89.79a27.48,27.48,0,0,0-.44-3.13,21.91,21.91,0,0,0-8.42-12.84c-4.67-3.67-10-6.06-15.43-8.41-6.42-2.81-12.9-5.49-19.17-8.6A43.11,43.11,0,0,1,48.55,42.09,46.36,46.36,0,0,1,46,37.57l0,0,1-22.44S38.53,41.28,14.1,82.58l.26-.36a28.55,28.55,0,0,0,.44,3.14,21.89,21.89,0,0,0,8.42,12.84c4.67,3.67,10,6.06,15.43,8.41,6.42,2.81,12.9,5.49,19.17,8.6a43.06,43.06,0,0,1,17.32,14.71,46.53,46.53,0,0,1,2.55,4.52l0,.06-1,22.44s8.46-26.12,32.9-67.42ZM89.65,117.54a63.45,63.45,0,0,0-4-6.07c-3.46-4.27-8.07-7.05-13-9.38-6.52-3.1-13.42-5.17-20.26-7.41-6-2-12-3.92-17.62-7-4.6-2.49-8.65-5.6-11.26-10.28a20.06,20.06,0,0,1-2-5.34l5.34-7.54a29,29,0,0,0,.44,3.14,21.9,21.9,0,0,0,8.42,12.83c4.67,3.67,10,6.06,15.42,8.42,6.42,2.81,12.9,5.49,19.17,8.6a43.07,43.07,0,0,1,17.32,14.71,46.38,46.38,0,0,1,2.55,4.52Zm12.51-17.64a64,64,0,0,0-4-6.07c-3.46-4.26-8.07-7-13-9.38-6.52-3.1-13.42-5.17-20.26-7.4-6-2-12-3.93-17.62-7C42.7,67.6,38.66,64.49,36,59.81a20.07,20.07,0,0,1-2-5.34l5-7a27.83,27.83,0,0,0,.44,3.13,21.89,21.89,0,0,0,8.42,12.84c4.67,3.67,10,6.06,15.42,8.42,6.42,2.81,12.9,5.49,19.17,8.6A43.09,43.09,0,0,1,99.75,95.19a46.66,46.66,0,0,1,2.55,4.52Z"/></svg>