<?xml version="1.0" encoding="utf-8"?>
<!-- Generator: Adobe Illustrator 20.0.0, SVG Export Plug-In . SVG Version: 6.00 Build 0)  -->
<svg version="1.1" id="Layer_1" xmlns="http://www.w3.org/2000/svg" xmlns:xlink="http://www.w3.org/1999/xlink" x="0px" y="0px"
	 viewBox="0 0 100 100" style="enable-background:new 0 0 100 100;" xml:space="preserve">
<style type="text/css">
	.st0{fill:#2980B9;}
	.st1{fill:#DDEBF4;}
	.st2{fill:none;stroke:#2980B9;stroke-width:1.2876;stroke-miterlimit:10;}
	.st3{fill:#274973;}
	.st4{fill:#5EC0E7;}
</style>
<g>
	<path class="st0" d="M50.4-40.9c0.2,0,0.6-1.3,1.1-2.8l4.1-14.9c0.5-1.5,0.6-2.8,0.5-2.8c-0.2,0-0.6,1.3-1.1,2.8l-4.1,14.9
		C50.5-42.2,50.3-40.9,50.4-40.9L50.4-40.9z"/>
	<path class="st0" d="M51.4-40.9c0.2,0,1-1.2,1.8-2.6L62.1-59c0.8-1.4,1.3-2.6,1.1-2.6c-0.2,0-1,1.2-1.8,2.6l-8.9,15.5
		C51.7-42.1,51.2-40.9,51.4-40.9L51.4-40.9z"/>
	<path class="st0" d="M49.4-40.9c0.2,0,0-1.3-0.5-2.8l-4-14.9c-0.5-1.5-0.9-2.8-1.1-2.8s0,1.3,0.5,2.8l4.1,14.9
		C48.7-42.2,49.2-40.9,49.4-40.9L49.4-40.9z"/>
	<path class="st0" d="M48.4-40.9c0.2,0-0.3-1.2-1.1-2.6L38.4-59c-0.8-1.4-1.6-2.6-1.8-2.6c-0.2,0,0.3,1.2,1.1,2.6l8.9,15.5
		C47.4-42.1,48.2-40.9,48.4-40.9L48.4-40.9z"/>
	<path class="st0" d="M60-39.1c-0.3,0.1-0.5,0.3-0.5,0.5c0,0.3,0.2,0.5,0.5,0.5V-39.1L60-39.1z"/>
	<g>
		<path class="st1" d="M32.5-61.6c-2.9,0-5.3-2.4-5.3-5.3s2.3-5.2,5.2-5.3c-0.1-0.6-0.3-1.2-0.3-1.9c0-4.2,3.4-7.6,7.6-7.6
			c0.7,0,1.4,0.1,2.1,0.3c1.9-3.7,5.7-6,9.8-6c5.4,0,10.1,4.1,10.9,9.3c0.6-0.1,1.3-0.3,1.9-0.3c4.6,0,8.3,3.7,8.3,8.3
			c0,4.6-3.7,8.3-8.3,8.3L32.5-61.6L32.5-61.6z"/>
		<path class="st0" d="M51.6-86.7c5.5,0,9.9,4.2,10.4,9.5c0.8-0.3,1.6-0.5,2.5-0.5c4.2,0,7.7,3.4,7.7,7.7s-3.4,7.7-7.7,7.7h-32
			c-2.6,0-4.6-2.1-4.6-4.6s2.1-4.6,4.6-4.6c0.3,0,0.6,0,0.8,0.1c-0.3-0.8-0.5-1.7-0.5-2.6c0-3.9,3.1-7,7-7c0.8,0,1.6,0.1,2.4,0.4
			C43.8-84.2,47.4-86.7,51.6-86.7 M51.6-88c-4.2,0-8.1,2.3-10.2,5.9c-0.6-0.1-1.2-0.2-1.7-0.2c-4.6,0-8.2,3.7-8.2,8.2
			c0,0.5,0.1,0.8,0.1,1.3c-2.8,0.5-5,2.9-5,5.9c0,3.3,2.6,5.9,5.9,5.9h32c5,0,8.9-4,8.9-8.9c0-5-4-8.9-8.9-8.9c-0.5,0-1,0.1-1.4,0.1
			C61.9-84,57.1-88,51.6-88L51.6-88z"/>
	</g>
	<g>
		<path class="st1" d="M53.7-28.8c-0.7,0-1.3-0.6-1.3-1.3v-2.5h-8.2v2.4c0,0.7-0.6,1.3-1.3,1.3h-3.2c-0.7,0-1.3-0.6-1.3-1.3V-36
			L38-35.5c-0.1,0.1-0.3,0.2-0.5,0.2c-0.3,0-0.5-0.1-0.6-0.3l-0.5-0.5c-0.3-0.3-0.3-0.6-0.1-1l2.2-3.3c0.2-0.4,0.6-0.7,1.1-0.7h11.7
			c0.2,0,0.4,0.1,0.6,0.1c0.1-0.5,0.4-1.4,1.1-1.4c0.5,0,0.8,0.5,0.9,1.2h2.3h0.1h2.8c0.8,0,1.4,0.5,1.6,1.2H61
			c0.2,0,0.4-0.2,0.4-0.4v-0.4c0-1,0.4-1.7,1-1.7c0.8,0,1,1.1,1.1,1.5l0.3,1.7c0.1,0.5-0.1,0.9-0.3,1.2c-0.3,0.3-0.7,0.5-1.2,0.5
			h-1.5v3.2c0,0.9-0.7,1.7-1.7,1.7h-0.7v2.5c0,0.7-0.6,1.3-1.3,1.3L53.7-28.8L53.7-28.8z"/>
		<path class="st0" d="M62.2-41.6c0.2,0,0.4,0.5,0.5,1l0.3,1.7c0.1,0.5-0.3,1-0.8,1h-1.7h-0.1v-1.2h0.1H61c0.6,0,1-0.5,1-1v-0.3
			C61.9-41.2,62.1-41.6,62.2-41.6 M53-41.6c0.2,0,0.3,0.5,0.3,1v0.3h0.1h2.8h0.1h2.8c0.6,0,1,0.5,1,1v5.2c0,0.6-0.5,1-1,1h-2.7
			c-0.6,0-1-0.5-1-1v-2.1C55.1-36,55-35.7,55-35.4v1.7c0,0.6,0.5,1,1,1h1.7v2.6c0,0.3-0.3,0.6-0.6,0.6h-3.3c-0.3,0-0.6-0.3-0.6-0.6
			v-2.5c0-0.3-0.3-0.6-0.6-0.6h-8.2c-0.3,0-0.6,0.3-0.6,0.6v2.5c0,0.3-0.3,0.6-0.6,0.6h-3.3c-0.3,0-0.6-0.3-0.6-0.6v-7.1L37.8-36
			l-0.1,0.1c-0.1,0-0.1,0-0.1-0.1l-0.5-0.5c-0.1-0.1-0.1-0.1,0-0.2l2.2-3.3c0.1-0.2,0.3-0.4,0.6-0.4h11.7c0.4,0,0.6,0.3,0.6,0.7
			l-0.3,1.4c-0.1,0.4,0.3,0.7,0.6,0.7h2.3c0.3,0,0.6-0.2,0.6-0.5C55.3-38,55.1-38,54.9-38h-1.7c-0.6,0-0.9-0.5-0.8-1l0.4-1.6
			C52.6-41.2,52.9-41.6,53-41.6 M62.2-42.9c-0.7,0-1.5,0.5-1.6,2c-0.4-0.5-1-0.7-1.7-0.7h-2.7c-0.1,0-0.1,0-0.1,0h-1.6
			c-0.3-0.9-0.9-1.2-1.5-1.2c-0.7,0-1.2,0.5-1.5,1.3c-0.1,0-0.1,0-0.1,0H39.7c-0.7,0-1.4,0.4-1.7,1l-2.1,3.2
			c-0.3,0.5-0.3,1.2,0.1,1.7l0.5,0.5c0.3,0.3,0.6,0.5,1.1,0.5c0.1,0,0.2,0,0.3,0v4.7c0,1,0.8,1.9,1.9,1.9h3.3c1,0,1.9-0.8,1.9-1.9
			v-1.8h6.9v1.8c0,1,0.8,1.9,1.9,1.9h3.3c1,0,1.9-0.8,1.9-1.9v-1.9h-0.1c1.3,0,2.3-1,2.3-2.3v-2.5h0.9c0.6,0,1.2-0.3,1.7-0.8
			c0.4-0.5,0.6-1.1,0.5-1.7L64-40.8C63.8-42.2,63.1-42.9,62.2-42.9L62.2-42.9z"/>
	</g>
</g>
<line class="st2" x1="36.5" y1="-61.5" x2="47.7" y2="-41.6"/>
<line class="st2" x1="43.8" y1="-61.5" x2="49.4" y2="-40.9"/>
<line class="st2" x1="50.4" y1="-40.9" x2="56" y2="-61.5"/>
<line class="st2" x1="63.2" y1="-61.5" x2="52" y2="-41.6"/>
<g>
	<path class="st3" d="M27.5,90.8v2.3H19V78.6h2.7v12.3h5.7V90.8z"/>
	<path class="st3" d="M42.8,85.7c0,1-0.1,2-0.6,3c-0.3,0.9-0.9,1.7-1.4,2.3c-0.6,0.7-1.4,1.1-2.3,1.6c-0.9,0.4-1.9,0.6-3,0.6
		c-1.1,0-2.2-0.1-3-0.6c-0.9-0.4-1.7-0.9-2.3-1.6c-0.6-0.7-1.1-1.4-1.4-2.3c-0.3-0.9-0.6-1.9-0.6-3c0-1,0.1-2,0.6-3
		c0.3-0.9,0.9-1.7,1.4-2.3c0.7-0.7,1.4-1.1,2.3-1.6c0.9-0.4,1.9-0.6,3-0.6c0.7,0,1.4,0.1,2,0.3c0.7,0.1,1.3,0.4,1.7,0.7
		c0.6,0.3,1,0.7,1.4,1.1c0.4,0.4,0.9,1,1.1,1.4c0.3,0.6,0.6,1.1,0.7,1.7C42.7,84.4,42.8,85,42.8,85.7z M40,85.7
		c0-0.9-0.1-1.6-0.3-2.2s-0.6-1.1-0.9-1.6c-0.4-0.4-0.9-0.7-1.4-1c-0.6-0.3-1.1-0.3-1.9-0.3s-1.3,0.1-1.9,0.3c-0.6,0.3-1,0.6-1.4,1
		c-0.4,0.4-0.7,1-0.9,1.6c-0.1,0.6-0.3,1.3-0.3,2.2s0.1,1.6,0.3,2.2c0.1,0.6,0.6,1.1,0.9,1.6c0.3,0.4,0.9,0.7,1.4,1s1.1,0.3,1.9,0.3
		s1.3-0.1,1.9-0.3c0.6-0.3,1-0.6,1.4-1c0.4-0.4,0.7-1,0.9-1.6C40,87.3,40,86.6,40,85.7z"/>
	<path class="st3" d="M55.2,89.6c0.1,0,0.3,0,0.4,0.1l1,1.1c-0.6,0.7-1.3,1.3-2.2,1.7c-0.9,0.4-1.9,0.6-3.2,0.6
		c-1.1,0-2-0.1-2.9-0.6c-0.9-0.4-1.6-0.9-2.2-1.6c-0.6-0.7-1.1-1.4-1.4-2.3c-0.3-0.9-0.4-1.9-0.4-3c0-1.1,0.1-2.2,0.6-3
		c0.3-0.9,0.9-1.7,1.4-2.3c0.6-0.7,1.4-1.1,2.3-1.6c0.9-0.4,1.9-0.6,2.9-0.6c1,0,2,0.1,2.9,0.6c0.9,0.3,1.6,0.9,2.2,1.4l-0.9,1.3
		c0,0.1-0.1,0.1-0.1,0.1c-0.1,0-0.1,0.1-0.3,0.1c-0.1,0-0.1,0-0.3-0.1c-0.1,0-0.3-0.1-0.3-0.1c-0.1-0.1-0.3-0.1-0.4-0.3
		c-0.1-0.1-0.4-0.1-0.6-0.3c-0.3-0.1-0.4-0.1-0.7-0.1c-0.3,0-0.6-0.1-1-0.1c-0.7,0-1.3,0.1-1.7,0.3c-0.6,0.3-1,0.6-1.4,1
		s-0.7,1-0.9,1.6c-0.1,0.6-0.3,1.3-0.3,2.2c0,0.9,0.1,1.6,0.3,2.2c0.1,0.6,0.6,1.1,1,1.6s0.9,0.7,1.4,1c0.6,0.3,1.1,0.3,1.7,0.3
		c0.4,0,0.7,0,1,0c0.3,0,0.6-0.1,0.9-0.1c0.3-0.1,0.4-0.1,0.7-0.3c0.3-0.1,0.4-0.3,0.7-0.6l0.1-0.1C55,89.6,55,89.6,55.2,89.6z"/>
	<path class="st3" d="M71,93.1h-2.2c-0.3,0-0.4,0-0.6-0.1c-0.1-0.1-0.3-0.3-0.3-0.4l-1.1-3h-6l-1.1,3c0,0.1-0.1,0.3-0.3,0.4
		s-0.3,0.1-0.6,0.1h-2.2l5.7-14.5h2.7L71,93.1z M66.1,87.6l-1.7-4.9c-0.1-0.1-0.1-0.4-0.3-0.7c-0.1-0.3-0.1-0.6-0.3-1
		c-0.1,0.3-0.1,0.7-0.3,1c-0.1,0.3-0.1,0.6-0.3,0.7l-1.7,4.9H66.1z"/>
	<path class="st3" d="M80.9,90.8v2.3h-8.5V78.6h2.7v12.3h5.7V90.8z"/>
</g>
<g>
	<g>
		<g>
			<path class="st4" d="M49,53.9c0.2,0,0.8-1.6,1.4-3.6l5.1-18.7c0.5-2,0.8-3.6,0.6-3.6c-0.2,0-0.8,1.6-1.4,3.6l-5.1,18.7
				C49,52.3,48.8,53.9,49,53.9z"/>
		</g>
		<g>
			<path class="st4" d="M50.2,53.9c0.2,0,1.3-1.5,2.3-3.2l11.1-19.4c1-1.8,1.6-3.2,1.4-3.2c-0.2,0-1.3,1.5-2.3,3.2L51.6,50.7
				C50.6,52.5,49.9,53.9,50.2,53.9z"/>
		</g>
		<g>
			<path class="st4" d="M47.7,53.9c0.2,0,0-1.6-0.6-3.6l-5.1-18.7c-0.5-2-1.2-3.6-1.4-3.6c-0.2,0,0,1.6,0.6,3.6l5.1,18.7
				C46.9,52.3,47.5,53.9,47.7,53.9z"/>
		</g>
		<g>
			<path class="st4" d="M46.4,53.9c0.2,0-0.4-1.5-1.4-3.2L33.9,31.3c-1-1.8-2.1-3.2-2.3-3.2c-0.2,0,0.4,1.5,1.4,3.2l11.1,19.4
				C45.2,52.5,46.2,53.9,46.4,53.9z"/>
		</g>
	</g>
</g>
<path class="st4" d="M66.7,15.1c-1.1,0-2.2,0.2-3.1,0.5c-0.6-6.7-6.2-12-13-12c-5.3,0-9.9,3.2-11.9,7.7c-0.9-0.3-1.9-0.5-3-0.5
	c-4.8,0-8.7,3.9-8.7,8.7c0,1.1,0.2,2.2,0.6,3.2c-0.3-0.1-0.7-0.1-1-0.1c-3.2,0-5.8,2.6-5.8,5.8s2.6,5.8,5.8,5.8h40.2
	c5.3,0,9.6-4.3,9.6-9.6C76.3,19.4,72,15.1,66.7,15.1z"/>
<path class="st4" d="M58.3,60.5c0-0.2-0.1-0.5-0.1-0.7c-0.2-1.2-0.9-2.1-1.9-2.8c-1-0.8-2.2-1.3-3.4-1.9c-1.4-0.6-2.8-1.2-4.2-1.9
	c-1.5-0.8-2.9-1.8-3.8-3.2c-0.2-0.3-0.4-0.7-0.6-1l0,0l0.2-4.9c0,0-1.9,5.8-7.3,14.9l0.1-0.1c0,0.2,0.1,0.5,0.1,0.7
	c0.2,1.2,0.9,2.1,1.9,2.8c1,0.8,2.2,1.3,3.4,1.9c1.4,0.6,2.8,1.2,4.2,1.9c1.5,0.8,2.9,1.8,3.8,3.2c0.2,0.3,0.4,0.7,0.6,1l0,0
	L51,75.3C51,75.3,52.9,69.5,58.3,60.5L58.3,60.5z M53.9,66.6c-0.3-0.5-0.5-0.9-0.9-1.3c-0.8-0.9-1.8-1.6-2.9-2.1
	c-1.4-0.7-3-1.1-4.5-1.6c-1.3-0.4-2.7-0.9-3.9-1.5c-1-0.5-1.9-1.2-2.5-2.3c-0.2-0.4-0.3-0.8-0.4-1.2l1.2-1.7c0,0.2,0.1,0.5,0.1,0.7
	c0.2,1.2,0.9,2.1,1.9,2.8c1,0.8,2.2,1.3,3.4,1.9c1.4,0.6,2.8,1.2,4.2,1.9c1.5,0.8,2.9,1.8,3.8,3.2c0.2,0.3,0.4,0.7,0.6,1L53.9,66.6z
	 M56.7,62.7c-0.3-0.5-0.5-0.9-0.9-1.3c-0.8-0.9-1.8-1.6-2.9-2.1c-1.4-0.7-3-1.1-4.5-1.6c-1.3-0.4-2.7-0.9-3.9-1.5
	c-1-0.5-1.9-1.2-2.5-2.3c-0.2-0.4-0.3-0.8-0.4-1.2l1.1-1.5c0,0.2,0.1,0.5,0.1,0.7c0.2,1.2,0.9,2.1,1.9,2.8c1,0.8,2.2,1.3,3.4,1.9
	c1.4,0.6,2.8,1.2,4.2,1.9c1.5,0.8,2.9,1.8,3.8,3.2C56.3,62,56.5,62.3,56.7,62.7L56.7,62.7z"/>
</svg>
