<?xml version="1.0" encoding="utf-8"?>
<!-- Generator: Adobe Illustrator 20.0.0, SVG Export Plug-In . SVG Version: 6.00 Build 0)  -->
<svg version="1.1" id="Layer_1" xmlns="http://www.w3.org/2000/svg" xmlns:xlink="http://www.w3.org/1999/xlink" x="0px" y="0px"
	 viewBox="0 0 100 100" style="enable-background:new 0 0 100 100;" xml:space="preserve">
<style type="text/css">
	.st0{fill:none;}
	.st1{fill:#274973;}
	.st2{fill:#5EC0E7;}
</style>
<g>
	<rect x="0.1" y="76" class="st0" width="100" height="24"/>
	<g>
		<path class="st1" d="M26.3,80.3c-0.4-0.5-0.9-0.9-1.5-1.1s-1.2-0.3-1.8-0.3c-0.7,0-1.4,0.1-2,0.4s-1.1,0.6-1.6,1.1
			c-0.4,0.5-0.8,1-1,1.6s-0.3,1.3-0.3,2c0,0.8,0.1,1.5,0.3,2.1c0.2,0.6,0.5,1.2,1,1.7c0.4,0.5,0.9,0.8,1.5,1.1
			c0.6,0.3,1.2,0.4,2,0.4s1.4-0.1,2-0.4s1.1-0.7,1.4-1.2l2,1.4c-0.6,0.8-1.4,1.4-2.3,1.8s-2,0.7-3.2,0.7c-1.1,0-2.1-0.2-3-0.6
			s-1.7-0.9-2.4-1.5c-0.7-0.7-1.2-1.4-1.6-2.4c-0.4-0.9-0.6-1.9-0.6-3s0.2-2.2,0.6-3.1c0.4-0.9,0.9-1.7,1.6-2.3
			c0.7-0.6,1.5-1.1,2.4-1.5c0.9-0.3,1.9-0.5,3-0.5c0.5,0,0.9,0,1.4,0.1s1,0.2,1.4,0.4c0.5,0.2,0.9,0.4,1.3,0.7c0.4,0.3,0.7,0.6,1,1
			L26.3,80.3z"/>
		<path class="st1" d="M38.6,91.1h-2.3v-1.5l0,0c-0.2,0.5-0.6,0.9-1.1,1.3s-1.1,0.5-1.9,0.5c-0.6,0-1.2-0.1-1.6-0.3
			c-0.4-0.2-0.8-0.5-1.1-0.9S30.1,89.4,30,89s-0.2-0.9-0.2-1.4v-6h2.4v5.3c0,0.3,0,0.6,0.1,0.9c0,0.3,0.1,0.6,0.3,0.8
			c0.1,0.2,0.3,0.5,0.5,0.6s0.5,0.2,0.9,0.2s0.7-0.1,1-0.2s0.5-0.3,0.7-0.6s0.3-0.5,0.4-0.8c0.1-0.3,0.1-0.6,0.1-1v-5.3h2.4
			C38.6,81.5,38.6,91.1,38.6,91.1z"/>
		<path class="st1" d="M46.7,84.1c-0.2-0.3-0.5-0.5-0.9-0.7s-0.8-0.3-1.2-0.3s-0.7,0.1-1.1,0.2S43,83.7,43,84.1s0.2,0.6,0.5,0.8
			s0.9,0.3,1.6,0.5c0.4,0.1,0.7,0.2,1.1,0.3c0.4,0.1,0.7,0.3,1,0.5s0.5,0.5,0.7,0.8s0.3,0.7,0.3,1.2c0,0.6-0.1,1.1-0.3,1.5
			s-0.5,0.7-0.9,1s-0.8,0.4-1.3,0.6c-0.5,0.1-1,0.2-1.5,0.2c-0.7,0-1.5-0.1-2.2-0.4s-1.3-0.7-1.8-1.2l1.6-1.5c0.3,0.3,0.6,0.6,1,0.9
			s0.9,0.3,1.4,0.3c0.2,0,0.4,0,0.5-0.1c0.2,0,0.3-0.1,0.5-0.2s0.3-0.2,0.4-0.3c0.1-0.1,0.1-0.3,0.1-0.5c0-0.4-0.2-0.7-0.5-0.9
			c-0.4-0.2-0.9-0.3-1.6-0.5c-0.4-0.1-0.7-0.2-1.1-0.3c-0.3-0.1-0.6-0.3-0.9-0.5c-0.3-0.2-0.5-0.5-0.6-0.8s-0.2-0.7-0.2-1.1
			c0-0.5,0.1-1,0.3-1.4s0.5-0.7,0.9-1c0.4-0.2,0.8-0.4,1.2-0.5s0.9-0.2,1.4-0.2c0.7,0,1.4,0.1,2,0.4c0.7,0.2,1.2,0.6,1.6,1.1
			L46.7,84.1z"/>
		<path class="st1" d="M49,83.4v-1.9h1.7v-2.8H53v2.8h2.4v1.9H53v4.5c0,0.4,0.1,0.8,0.2,1.1c0.2,0.3,0.5,0.4,1,0.4
			c0.2,0,0.3,0,0.5,0s0.4-0.1,0.5-0.2l0.1,1.9c-0.2,0.1-0.5,0.1-0.8,0.2c-0.3,0-0.6,0.1-0.8,0.1c-0.6,0-1.2-0.1-1.6-0.3
			c-0.4-0.2-0.7-0.4-1-0.7s-0.4-0.7-0.5-1.1s-0.1-0.8-0.1-1.3v-4.5L49,83.4L49,83.4z"/>
		<path class="st1" d="M56.6,86.3c0-0.8,0.1-1.5,0.4-2.1s0.6-1.1,1.1-1.6c0.5-0.4,1-0.8,1.7-1c0.6-0.2,1.3-0.4,2-0.4s1.4,0.1,2,0.4
			c0.6,0.2,1.2,0.6,1.7,1s0.8,1,1.1,1.6s0.4,1.3,0.4,2.1s-0.1,1.5-0.4,2.1S66,89.5,65.5,90c-0.5,0.4-1,0.8-1.7,1.1
			c-0.6,0.3-1.3,0.4-2,0.4s-1.4-0.1-2-0.4s-1.2-0.6-1.7-1.1c-0.5-0.4-0.8-1-1.1-1.6S56.6,87,56.6,86.3z M59,86.3
			c0,0.4,0.1,0.7,0.2,1.1s0.3,0.7,0.5,1s0.5,0.5,0.9,0.7c0.3,0.2,0.8,0.3,1.2,0.3c0.5,0,0.9-0.1,1.2-0.3s0.6-0.4,0.9-0.7
			c0.2-0.3,0.4-0.6,0.5-1s0.2-0.7,0.2-1.1s-0.1-0.7-0.2-1.1s-0.3-0.7-0.5-1c-0.2-0.3-0.5-0.5-0.9-0.7c-0.3-0.2-0.8-0.3-1.2-0.3
			c-0.5,0-0.9,0.1-1.2,0.3c-0.3,0.2-0.6,0.4-0.9,0.7c-0.2,0.3-0.4,0.6-0.5,1C59.1,85.5,59,85.9,59,86.3z"/>
		<path class="st1" d="M80.8,81.2c0.6,0,1.2,0.1,1.6,0.3c0.4,0.2,0.8,0.5,1.1,0.9c0.3,0.4,0.5,0.8,0.6,1.2c0.1,0.5,0.2,0.9,0.2,1.4
			v6H82v-5.3c0-0.3,0-0.6-0.1-0.9c0-0.3-0.1-0.6-0.3-0.8c-0.1-0.2-0.3-0.5-0.5-0.6c-0.2-0.2-0.5-0.2-0.9-0.2s-0.7,0.1-1,0.2
			c-0.3,0.2-0.5,0.4-0.7,0.6c-0.2,0.3-0.3,0.5-0.4,0.8S78,85.6,78,85.9v5.2h-2.4v-5.8c0-0.6-0.1-1.1-0.4-1.5s-0.7-0.6-1.3-0.6
			c-0.4,0-0.7,0.1-0.9,0.2c-0.3,0.2-0.5,0.4-0.7,0.6s-0.3,0.5-0.4,0.8s-0.1,0.6-0.1,1v5.3h-2.4v-9.6h2.3V83l0,0
			c0.1-0.2,0.2-0.5,0.4-0.7c0.2-0.2,0.4-0.4,0.6-0.6s0.5-0.3,0.8-0.4s0.7-0.1,1.1-0.1c0.7,0,1.4,0.2,1.9,0.5s0.9,0.8,1.1,1.3
			c0.3-0.6,0.7-1,1.3-1.4C79.5,81.4,80.1,81.2,80.8,81.2z"/>
	</g>
</g>
<g>
	<g>
		<g>
			<path class="st2" d="M48.7,53.9c0.2,0,0.8-1.6,1.4-3.6l5.1-18.7c0.5-2,0.8-3.6,0.6-3.6c-0.2,0-0.8,1.6-1.4,3.6l-5.1,18.7
				C48.7,52.3,48.5,53.9,48.7,53.9z"/>
		</g>
		<g>
			<path class="st2" d="M49.9,53.9c0.2,0,1.3-1.5,2.3-3.2l11.1-19.4c1-1.8,1.6-3.2,1.4-3.2c-0.2,0-1.3,1.5-2.3,3.2L51.3,50.7
				C50.3,52.5,49.7,53.9,49.9,53.9z"/>
		</g>
		<g>
			<path class="st2" d="M47.4,53.9c0.2,0,0-1.6-0.6-3.6l-5.1-18.7c-0.5-2-1.2-3.6-1.4-3.6c-0.2,0,0,1.6,0.6,3.6L46,50.3
				C46.6,52.3,47.2,53.9,47.4,53.9z"/>
		</g>
		<g>
			<path class="st2" d="M46.2,53.9c0.2,0-0.4-1.5-1.4-3.2L33.6,31.3c-1-1.8-2.1-3.2-2.3-3.2c-0.2,0,0.4,1.5,1.4,3.2l11.1,19.4
				C44.9,52.5,45.9,53.9,46.2,53.9z"/>
		</g>
	</g>
</g>
<path class="st2" d="M66.4,15.1c-1.1,0-2.2,0.2-3.1,0.5c-0.6-6.7-6.2-12-13-12c-5.3,0-9.9,3.2-11.9,7.7c-0.9-0.3-1.9-0.5-3-0.5
	c-4.8,0-8.7,3.9-8.7,8.7c0,1.1,0.2,2.2,0.6,3.2c-0.3-0.1-0.7-0.1-1-0.1c-3.2,0-5.8,2.6-5.8,5.8s2.6,5.8,5.8,5.8h40.2
	c5.3,0,9.6-4.3,9.6-9.6S71.7,15.1,66.4,15.1z"/>
<path class="st2" d="M58,60.5c0-0.2-0.1-0.5-0.1-0.7C57.6,58.6,57,57.7,56,57c-1-0.8-2.2-1.3-3.4-1.9c-1.4-0.6-2.8-1.2-4.2-1.9
	c-1.5-0.8-2.9-1.8-3.8-3.2c-0.2-0.3-0.4-0.7-0.6-1l0,0l0.2-4.9c0,0-1.9,5.8-7.3,14.9l0.1-0.1c0,0.2,0.1,0.5,0.1,0.7
	c0.2,1.2,0.9,2.1,1.9,2.8c1,0.8,2.2,1.3,3.4,1.9c1.4,0.6,2.8,1.2,4.2,1.9c1.5,0.8,2.9,1.8,3.8,3.2c0.2,0.3,0.4,0.7,0.6,1l0,0
	l-0.2,4.9C50.8,75.3,52.6,69.5,58,60.5L58,60.5z M53.6,66.6c-0.3-0.5-0.5-0.9-0.9-1.3c-0.8-0.9-1.8-1.6-2.9-2.1
	c-1.4-0.7-3-1.1-4.5-1.6c-1.3-0.4-2.7-0.9-3.9-1.5c-1-0.5-1.9-1.2-2.5-2.3c-0.2-0.4-0.3-0.8-0.4-1.2l1.2-1.7c0,0.2,0.1,0.5,0.1,0.7
	c0.2,1.2,0.9,2.1,1.9,2.8c1,0.8,2.2,1.3,3.4,1.9c1.4,0.6,2.8,1.2,4.2,1.9c1.5,0.8,2.9,1.8,3.8,3.2c0.2,0.3,0.4,0.7,0.6,1L53.6,66.6z
	 M56.4,62.7c-0.3-0.5-0.5-0.9-0.9-1.3c-0.8-0.9-1.8-1.6-2.9-2.1c-1.4-0.7-3-1.1-4.5-1.6c-1.3-0.4-2.7-0.9-3.9-1.5
	c-1-0.5-1.9-1.2-2.5-2.3c-0.2-0.4-0.3-0.8-0.4-1.2l1.1-1.5c0,0.2,0.1,0.5,0.1,0.7c0.2,1.2,0.9,2.1,1.9,2.8c1,0.8,2.2,1.3,3.4,1.9
	c1.4,0.6,2.8,1.2,4.2,1.9c1.5,0.8,2.9,1.8,3.8,3.2C56.1,62,56.2,62.3,56.4,62.7L56.4,62.7z"/>
</svg>
