<?xml version="1.0" encoding="utf-8"?>
<!-- Generator: Adobe Illustrator 20.0.0, SVG Export Plug-In . SVG Version: 6.00 Build 0)  -->
<svg version="1.1" id="Layer_1" xmlns="http://www.w3.org/2000/svg" xmlns:xlink="http://www.w3.org/1999/xlink" x="0px" y="0px"
	 viewBox="0 0 2194.2 428" style="enable-background:new 0 0 2194.2 428;" xml:space="preserve">
<style type="text/css">
	.st0{fill:#274973;}
	.st1{font-family:'AvantGardeLT-Bold';}
	.st2{font-size:436.0672px;}
	.st3{font-family:'AvantGardeLT-Medium';}
	.st4{font-size:165.9373px;}
	.st5{fill:url(#SVGID_1_);}
</style>
<g>
	<g>
		<text transform="matrix(1 0 0 1 -14.5366 383.0752)" class="st0 st1 st2">NewWave</text>
	</g>
	<g>
		<text transform="matrix(1 0 0 1 -8.8916 556.5225)" class="st0 st3 st4">TELECOM &amp; TECHNOLOGIES </text>
	</g>
	<path class="st0" d="M-69.6,311.8c-6.2-29.4-23.1-52.4-46.5-70.9c-25.8-20.3-55.4-33.4-85.2-46.5c-35.4-15.5-71.2-30.3-105.9-47.5
		c-38.4-19-71.7-45-95.6-81.2c-5.3-7.9-9.7-16.4-14.1-24.9l-0.1,0.1l5.6-123.9c0,0-46.7,144.2-181.6,372.2l1.4-2
		c0.6,5.8,1.3,11.6,2.5,17.3c6.2,29.4,23.1,52.4,46.5,70.9c25.8,20.2,55.4,33.4,85.2,46.5c35.4,15.5,71.2,30.3,105.8,47.5
		c38.3,19,71.7,45,95.6,81.2c5.3,7.9,9.7,16.4,14.1,24.9l-0.3,0.4l-5.6,123.9c0,0,46.7-144.2,181.6-372.2l-1.1,1.5
		C-67.7,323.3-68.4,317.5-69.6,311.8z M-175.8,482.3c-7.2-11.3-13.7-23.2-22.1-33.5c-19.1-23.5-44.6-38.9-71.6-51.8
		c-36-17.1-74.1-28.6-111.9-40.9c-33.2-10.8-66.4-21.7-97.3-38.4c-25.4-13.8-47.8-30.9-62.2-56.8c-5.2-9.3-8.8-19.2-11.2-29.5
		l29.5-41.6c0.6,5.8,1.3,11.6,2.5,17.3c6.2,29.4,23,52.4,46.5,70.9c25.8,20.3,55.4,33.4,85.2,46.5c35.4,15.5,71.2,30.3,105.9,47.5
		c38.3,19,71.7,45,95.6,81.2c5.3,8,9.7,16.4,14.1,25L-175.8,482.3z M-106.8,384.9c-7.2-11.3-13.7-23.2-22.1-33.5
		c-19.1-23.5-44.6-38.9-71.6-51.8c-36-17.1-74.1-28.6-111.9-40.9c-33.2-10.9-66.4-21.7-97.3-38.4c-25.4-13.8-47.8-30.9-62.2-56.8
		c-5.2-9.3-8.8-19.2-11.2-29.5l27.3-38.6c0.6,5.8,1.2,11.6,2.5,17.3c6.2,29.4,23,52.5,46.5,70.9c25.8,20.3,55.4,33.4,85.2,46.5
		c35.4,15.5,71.2,30.3,105.9,47.5c38.3,19,71.7,45,95.6,81.2c5.3,7.9,9.7,16.4,14.1,24.9L-106.8,384.9z"/>
	<path class="st0" d="M-73.2,329.8c-0.5-5.8-1.2-11.5-2.4-17.1c-6.1-29.2-22.8-52-46.1-70.2c-25.6-20.1-54.9-33.1-84.4-46
		c-35.1-15.4-70.6-30-104.9-47c-38-18.8-71.1-44.6-94.8-80.5c-5.2-7.9-9.6-16.3-13.9-24.7l-0.1,0.1l5.5-122.8
		c0,0-46.3,142.9-180,368.9l1.4-2c0.6,5.8,1.2,11.5,2.4,17.1c6.1,29.2,22.8,52,46.1,70.2c25.6,20.1,54.9,33.1,84.4,46
		c35.1,15.4,70.6,30,104.9,47.1c38,18.8,71.1,44.6,94.8,80.5c5.2,7.9,9.6,16.3,13.9,24.7l-0.2,0.4l-5.5,122.8
		c0,0,46.3-142.9,180-368.9L-73.2,329.8z M-180.9,481.7c-7.1-11.2-13.6-23-21.9-33.2c-18.9-23.3-44.2-38.6-71-51.3
		c-35.7-16.9-73.4-28.3-110.9-40.5c-32.9-10.7-65.8-21.5-96.4-38.1c-25.2-13.6-47.3-30.7-61.6-56.3c-5.2-9.3-8.7-19-11.1-29.2
		l29.2-41.2c0.6,5.8,1.2,11.5,2.4,17.2c6.2,29.2,22.8,52,46.1,70.2c25.5,20.1,54.9,33.1,84.4,46.1c35.1,15.4,70.6,30,104.9,47
		c38,18.8,71.1,44.6,94.8,80.5c5.2,7.9,9.6,16.3,13.9,24.7L-180.9,481.7z M-112.5,385.2c-7.2-11.2-13.6-23-21.9-33.2
		c-19-23.3-44.2-38.6-71-51.3c-35.7-16.9-73.4-28.3-110.9-40.5c-32.9-10.8-65.8-21.5-96.4-38.1c-25.2-13.6-47.3-30.6-61.6-56.3
		c-5.2-9.3-8.7-19-11.1-29.2l27.1-38.2c0.6,5.8,1.2,11.5,2.4,17.1c6.1,29.2,22.8,52,46.1,70.2c25.6,20.1,54.9,33.1,84.4,46
		c35.1,15.4,70.6,30,104.9,47c38,18.8,71.1,44.6,94.8,80.5c5.2,7.9,9.6,16.3,13.9,24.7L-112.5,385.2z"/>
	<linearGradient id="SVGID_1_" gradientUnits="userSpaceOnUse" x1="-92.8635" y1="535.5969" x2="-562.5031" y2="65.9573">
		<stop  offset="0" style="stop-color:#2B588D"/>
		<stop  offset="0.2849" style="stop-color:#9BC3E2"/>
		<stop  offset="0.6129" style="stop-color:#2B588D"/>
		<stop  offset="1" style="stop-color:#FFFFFF"/>
	</linearGradient>
	<path class="st5" d="M-67.3,321.3c-0.5-5.8-1.2-11.5-2.4-17.2c-6.2-29.2-22.9-52-46.1-70.3c-25.6-20.1-55-33.2-84.5-46.1
		c-35.2-15.4-70.7-30.1-105.1-47.1c-38.1-18.9-71.2-44.7-94.9-80.6c-5.2-7.9-9.6-16.3-13.9-24.8l-0.1,0.1l5.5-123
		c0,0-46.4,143.1-180.3,369.4l1.4-2c0.6,5.8,1.2,11.5,2.4,17.2c6.2,29.2,22.9,52,46.2,70.3c25.6,20.1,55,33.2,84.5,46.1
		c35.2,15.4,70.7,30.1,105.1,47.1c38.1,18.9,71.2,44.7,94.9,80.6c5.2,7.9,9.6,16.3,14,24.8l-0.3,0.3l-5.6,123
		c0,0,46.4-143.1,180.3-369.4L-67.3,321.3z M-175.1,473.4c-7.2-11.2-13.6-23-21.9-33.2c-19-23.4-44.2-38.6-71.1-51.4
		c-35.7-17-73.6-28.4-111-40.6c-32.9-10.8-65.9-21.5-96.6-38.1c-25.2-13.7-47.4-30.7-61.7-56.3c-5.2-9.3-8.8-19.1-11.1-29.3
		l29.3-41.3c0.6,5.8,1.3,11.5,2.4,17.2c6.2,29.2,22.9,52,46.2,70.3c25.6,20.1,55,33.2,84.5,46.1c35.2,15.4,70.7,30.1,105.1,47.1
		c38.1,18.9,71.2,44.7,94.9,80.6c5.2,7.9,9.6,16.3,14,24.8L-175.1,473.4z M-106.6,376.7c-7.2-11.2-13.6-23-21.9-33.3
		c-19-23.4-44.2-38.6-71.1-51.4c-35.7-17-73.5-28.3-111-40.6c-32.9-10.8-65.9-21.5-96.6-38.1c-25.2-13.7-47.4-30.7-61.7-56.3
		c-5.2-9.3-8.8-19.1-11.1-29.2l27.1-38.3c0.6,5.8,1.2,11.5,2.4,17.2c6.1,29.2,22.9,52.1,46.2,70.3c25.6,20.1,55,33.2,84.5,46.1
		c35.2,15.4,70.7,30.1,105.1,47.1c38.1,18.9,71.2,44.7,94.9,80.6c5.2,7.9,9.6,16.3,13.9,24.8L-106.6,376.7z"/>
</g>
</svg>
